# xmcd
# 
# Track frame offsets:
#     150
#     16724
#     29171
#     50829
#     62315
#     74630
#     89037
#     104597
#     119155
#     136146
#     161619
#     183757
#     206755
#     229877
#     247804
#     269783
#     287000
#     307640
#     329027
# 
# Disc length: 4621
# 
# Revision: 4
# Processed by: cddbd v1.5.2PL0 Copyright (c) Steve Scherf et al.
# Submitted via: fre:ac v1.0.31
# 
DISCID=23120b13
DTITLE=Emmylou Harris - Songbird... Rare Tracks and Forgotten Gems Disc 2
DYEAR=2007
DGENRE=Country
TTITLE0=The Sweetheart Of The Rodeo (with Dolly Parton and Linda Ronstadt)
TTITLE1=When I Was Yours
TTITLE2=My Father's House
TTITLE3=Bright Morning Stars
TTITLE4=When He Calls
TTITLE5=Lonely Street
TTITLE6=Brand New Dance
TTITLE7=Get Up John
TTITLE8=If I Could Be There
TTITLE9=Ballad Of A Runaway Horse
TTITLE10=Going Back To Harlan
TTITLE11=Sweet Old World
TTITLE12=All My Tears (live)
TTITLE13=Prayer In Open D (live)
TTITLE14=Bang The Drum Slowly
TTITLE15=Boy From Tupelo
TTITLE16=Lost Unto This World
TTITLE17=Man Is An Island
TTITLE18=Cup Of Kindness
EXTD=
EXTT0=
EXTT1=
EXTT2=
EXTT3=
EXTT4=
EXTT5=
EXTT6=
EXTT7=
EXTT8=
EXTT9=
EXTT10=
EXTT11=
EXTT12=
EXTT13=
EXTT14=
EXTT15=
EXTT16=
EXTT17=
EXTT18=
PLAYORDER=
